# xmcd
#
# Track frame offsets:
#  150
#  10397
#  22499
#  36947
#  51606
#  63557
#  77829
#  91511
#  104280
#  119567
#
# Disc length: 1755 seconds
#
# Revision: 0
# Processed by: cddbd v1.5.1PL2 Copyright (c) Steve Scherf et al.
# Submitted via: Collectorz.com_Music_Collector 6.11
#
DISCID=8a06d90a
DTITLE=Terry Bradshaw - Until You
DYEAR=1980
DGENRE=Country Gospel
TTITLE0=I'm Living For Jesus (For He Died For Me)
TTITLE1=What A Difference (His Love Light Can Make)
TTITLE2=Dimestore Jesus
TTITLE3=Your Love Is Morning To Me
TTITLE4=River Call Jordan
TTITLE5=Until You
TTITLE6=He Was There All The Time
TTITLE7=This Ole House
TTITLE8=May The Good Lord Bless And Keep You
TTITLE9=Learning To Lean
EXTD=
EXTT0=
EXTT1=
EXTT2=
EXTT3=
EXTT4=
EXTT5=
EXTT6=
EXTT7=
EXTT8=
EXTT9=
PLAYORDER=
